<svg width="716" height="512" viewBox="0 0 716 512" fill="none" xmlns="http://www.w3.org/2000/svg">
<rect width="716" height="512" fill="#81D9FF"/>
<path d="M508.737 406.742C468.478 447.002 414.942 469.178 358.001 469.178C301.06 469.178 247.524 447.002 207.263 406.742C166.997 366.477 144.823 312.941 144.823 256C144.823 199.059 166.997 145.523 207.263 105.263C208.209 104.317 209.199 103.431 210.162 102.505C209.405 104.815 208.579 107.085 207.245 109.081C204.077 113.8 198.786 115.696 195.467 120.127C192.446 124.164 190.017 130.276 188.892 134.811C187.672 139.714 188.413 145.677 186.687 150.571C184.493 156.783 180.509 160.481 181.25 167.684C189.91 170.258 186.154 154.866 193.451 154.075C195.765 159.819 194.244 170.502 193.587 176.764C192.681 185.375 191.003 187.511 196.144 194.903C200.218 200.757 201.567 204.674 209.446 205.6C216.674 206.451 219.672 209.722 222.68 216.686C228.249 217.87 231.624 218.791 232.346 224.964C234.759 226.308 239.307 230.658 241.858 231.33C245.553 232.301 251.728 227.034 255.212 231.091C261.034 237.866 247.837 255.562 245.478 261.67C242.025 270.61 241.516 283.741 249.988 290.162C254.337 293.458 258.963 295.036 260.377 301.014C261.685 306.544 260.668 311.149 263.119 316.375C266.939 324.524 275.685 327.227 281.915 333.459C290.08 341.638 289.522 352.255 289.522 363.834C289.522 375.959 294.128 385.178 295.73 396.279C297.385 407.728 300.751 418.34 303.156 429.411C304.97 437.739 312.151 450.327 322.554 448.635C323.277 444.688 319.186 441.596 318.673 437.694C318.206 434.14 319.204 430.446 318.496 426.648C317.094 419.122 317.166 414.706 322.153 408.166C323.915 405.856 326.341 403.945 328.164 401.63C331.689 397.14 328.988 398.469 328.836 393.551C328.648 387.413 330.516 390.425 334.217 388.508C336.138 387.518 338.269 384.516 339.741 382.988C342.976 379.628 347.956 375.601 350.453 371.614C353.262 367.124 352.912 360.872 355.792 356.242C359.098 350.926 363.78 350.921 368.4 347.457C374.389 342.967 371.921 338.238 373.01 332.08C374.836 321.781 379.499 310.427 385.993 302.224C394.163 291.9 397.675 283.129 387.732 273.213C382.822 268.315 380.261 269.619 373.741 267.917C368.771 266.613 364.295 262.984 359.239 262.362C356.21 261.988 354.419 263.083 351.65 262.357C349.072 261.685 349.385 260.107 346.665 260.137C342.607 260.186 336.937 268.639 333.513 263.238C331.605 260.226 337.396 251.903 337.133 247.866C336.809 242.913 334.965 234.835 330.112 232.127C328.274 231.101 324.195 230.952 321.945 230.091C319.299 229.065 316.707 227.433 314.337 225.909C311.247 223.928 305.27 220.469 303.899 216.924C300.1 216.77 297.529 214.68 293.666 214.729C290.2 214.774 287.9 216.377 284.154 215.954C280.871 215.59 277.336 212.997 273.799 213.485C271.437 213.813 267.942 216.875 265.899 218.029C260.505 221.071 254.763 223.281 248.794 224.391C239.556 226.123 237.895 222.594 238.442 214.037L237.059 211.28C240.493 201.737 234.308 201.065 227.496 198.751C226.555 191.956 234.915 187.103 231.418 179.651C224.346 179.288 216.639 199.184 210.657 190.567C206.712 184.883 212.709 168.988 216.182 164.17C219.682 159.317 232.408 150.561 238.404 149.804C243.071 149.227 247.153 151.273 248.947 155.364C250.904 159.824 248.35 164.026 248.914 169.083C254.878 167.704 253.336 160.118 253.073 156.051C252.64 149.261 256.198 149.774 259.665 144.876C262.819 140.416 263.307 135.324 267.243 131.013C270.307 127.653 273.906 124.114 277.268 121.023C281.103 117.488 285.429 117.812 289.366 115.208C295.349 111.251 287.435 103.904 296.251 104.457C299.388 104.651 297.832 106.607 301.984 105.661C303.745 105.263 307.002 103.635 308.848 102.883C317.261 99.4638 311.296 98.5529 307.436 94.0978C302.528 88.438 309.476 89.4286 314.541 88.5774C318.259 87.9502 317.475 86.7407 320.74 88.9259C323.618 90.8523 321.926 93.4159 326.109 93.2715C334.077 93.0027 328.557 85.0183 326.781 82.3651C323.744 77.8304 322.966 74.6696 316.55 74.4953C317.158 72.4594 317.24 69.7664 316.342 67.8001C310.938 68.512 310.006 64.5845 305.915 63.0413C299.03 60.433 300.135 66.0728 297.319 69.9157C294.414 73.883 288.876 73.1961 286.745 78.0345C284.53 83.067 286.642 86.9198 278.548 85.541C279.648 82.5095 279.269 78.6318 279.065 75.3962C276.712 75.0926 274.563 74.4954 272.386 73.7885C272.395 65.6996 281.361 65.0175 287.451 64.2459C294.276 63.3848 296.506 56.4459 302.602 55.2711C308.29 54.181 312.363 63.3898 319.377 58.0536C323.378 55.0072 321.529 53.2202 320.065 50.2834C319.672 49.5018 317.656 47.7348 317.119 47.0031L316.985 46.7591C322.42 45.7087 327.92 44.8974 333.462 44.2702C334.503 47.2967 336.762 50.9554 337.997 53.051C338.899 54.5842 340.606 55.6195 341.328 57.3069C342.15 59.2284 340.213 61.6177 342.642 62.9169C346.393 64.918 357.311 51.8664 359.932 49.7508C363.259 47.0578 365.337 45.5843 364.546 42.9859C382.094 43.5085 399.272 46.1469 415.799 50.7763C417.114 52.4239 418.463 54.1212 419.815 55.9978C422.723 60.0348 424.561 63.6737 429.805 65.4707C432.841 66.5061 442.537 66.3218 438.506 73.2509C434.783 79.6473 430.666 71.2646 428.792 69.2536C426.19 66.4611 418.502 63.36 418.743 69.7664C419.103 79.2989 440.576 77.7657 435.967 88.2339C438.538 89.7522 443.616 92.271 442.782 96.0192C441.754 100.649 435.724 97.6968 435.843 103.615C436.012 111.998 445.16 118.897 453.656 115.881C462.715 112.665 455.894 100.091 466.271 98.7968C470.364 98.2841 472.773 99.4837 476.437 102.386C479.423 104.75 481.345 110.116 485.461 109.698C485.89 107.145 483.963 105.318 483.635 102.968C486.82 103.765 493.227 107.742 495.054 110.514C497.821 114.711 497.527 120.759 504.287 115.348C503.277 114.512 502.769 112.66 502.217 111.998C510.863 112.028 516.901 115.582 520.619 123.088C528.912 139.849 508.543 126.553 507.533 135.279C502.52 133.686 500.29 129.649 495.935 127.235C493.869 126.09 490.051 126.702 488.468 125.542C486.288 123.944 486.825 121.042 484.909 119.469C477.378 113.292 460.201 123.268 453.274 127.255C451.398 128.335 449.399 128.449 448.12 130.48C445.921 133.965 449.008 134.856 448.318 138.106C447.338 142.746 441.283 144.881 439.453 148.599C435.059 157.525 443.984 170.303 442.782 180.213C442.115 185.714 436.181 191.682 438.46 196.282C439.44 198.263 442.86 199.95 444.167 202.29C445.357 204.41 445.864 207.193 447.429 209.393C452.506 216.526 459.806 224.461 465.754 231.126C469.135 234.909 473.734 235.969 478.831 234.919C483.037 234.053 489.429 232.644 493.326 230.773C498.538 228.284 499.23 224.764 504.705 227.139C509.061 229.035 512.899 234.586 517.986 229.986C522.182 234.088 517.528 241.226 516.592 245.796C515.393 251.649 517.707 256.727 521.306 261.705C525.622 267.673 526.637 268.723 525.751 276.703C525.064 282.92 523.486 288.604 522.147 294.767C520.873 300.656 517.12 305.131 517.314 311.373C517.503 317.127 519.992 321.761 519.236 327.939C518.568 333.38 518.235 339.866 516.816 345.197C515.358 350.652 511.505 355.491 509.877 361.076C508.339 366.392 508.772 373.272 512.491 377.642C516.358 382.192 520.201 379.588 524.746 376.144C533.696 369.344 537.773 357.811 543.721 348.646C549.794 339.283 555.917 330.741 559.963 321.04C560.82 318.979 561.86 316.953 562.915 314.922C553.089 349.279 534.701 380.778 508.737 406.742ZM358.001 32C234.292 32 134 132.292 134 256C134 379.713 234.292 480 358.001 480C481.713 480 582 379.713 582 256C582 132.292 481.713 32 358.001 32Z" fill="white"/>
</svg>
